/* XPM */
static const char *freemat_2[] = {
/* columns rows colors chars-per-pixel */
"16 16 99 2",
"   c black",
".  c #0E557C",
"X  c #184669",
"o  c #204A67",
"O  c #26547B",
"+  c #315169",
"@  c #536779",
"#  c #576C7F",
"$  c #62707C",
"%  c #1C77B3",
"&  c #216C98",
"*  c #2D6495",
"=  c #277099",
"-  c #3B7B9F",
";  c #317BA4",
":  c #436281",
">  c #4E759A",
",  c #617483",
"<  c #697D8C",
"1  c #727A82",
"2  c #787E83",
"3  c #1594C4",
"4  c #169BC4",
"5  c #1F9CC7",
"6  c #1C9FC8",
"7  c #1AA4CC",
"8  c #1FABD7",
"9  c #229BC5",
"0  c #3B87C8",
"q  c #24A2CC",
"w  c #23AED7",
"e  c #3FBAE4",
"r  c #34C1E4",
"t  c #39C8E8",
"y  c #4086B6",
"u  c #6C8094",
"i  c #7A868F",
"p  c #778592",
"a  c #7B8893",
"s  c #6392BD",
"d  c #758EA8",
"f  c #7090AE",
"g  c #7A91A4",
"h  c #599DC6",
"j  c #46B6E2",
"k  c #7CC2E4",
"l  c #818D98",
"z  c #8C8F93",
"x  c #83919C",
"c  c #8F969E",
"v  c #8299AA",
"b  c #9CA5AD",
"n  c #93A4B3",
"m  c #9CA9B7",
"M  c #A5A9AC",
"N  c #ACACAC",
"B  c #A6ABB0",
"V  c #ABADB0",
"C  c #B0B1B3",
"Z  c #B4B4B4",
"A  c #85A6C5",
"S  c #88ADD0",
"D  c #89B5D8",
"F  c #A1B9CF",
"G  c #A7BDD1",
"H  c #87CAE7",
"J  c #82DFF4",
"K  c #8CE2F5",
"L  c #A1C6E3",
"P  c #A7CAEA",
"I  c #AECBE6",
"U  c #ABCDE9",
"Y  c #ACDAF0",
"T  c #B4CFE6",
"R  c #B4D4EF",
"E  c #B5F9FD",
"W  c #BEFAFF",
"Q  c #C7D3DE",
"!  c #CDDDEE",
"~  c #C8DEF1",
"^  c #D3DCE5",
"/  c #C3EEF6",
"(  c #C5F2F9",
")  c #C0FAFE",
"_  c #CBF3FA",
"`  c #D3E2EE",
"'  c #DFE1E4",
"]  c #D5E4F2",
"[  c #D1F0F7",
"{  c #D2F6FB",
"}  c #DCFAFC",
"|  c #E5EEF6",
" . c #E8EEF6",
".. c #E5F0F7",
"X. c #E2F7FB",
"o. c #EDF3F9",
"O. c #F3F7FC",
"+. c #F6F9FB",
"@. c None",
/* pixels */
"@.@.@.@.@.Q ` ] ] T F 2 @.@.@.@.",
"@.@.@.@.o M n X.H O 2 2 @.@.@.@.",
"@.@.@.@.@.@.| _ 6 c @.@.@.@.@.@.",
"@.@.@.! U s d / 5 > S R T 2 @.@.",
"@.@...k X 2 ' _ 9 N @.g Y h 2 @.",
"@.| J . 2 @.O._ 9 Z @.@.L K - 2 ",
"! X.w 1 @.@.O._ 9 C @.@.] ( w B ",
" .E 4 V @.@.O._ 9 C @.@.o.[ t < ",
"] E 7 V @.@.O._ 9 C @.@.| } r , ",
"! / r x @.@.O._ 9 C @.@.! ) 3 z ",
"@.D e ; 2 @.+._ 9 Z @.@.] j o 2 ",
"@.@.v % 0 I ] { 9 m ~ P y + 2 @.",
"@.@.@.@.c # u ( q : @ $ Z @.@.@.",
"@.@.@.@.@.@.^ W 8 b @.@.@.@.@.@.",
"@.@.@.@.@.G f = & * A 2 @.@.@.@.",
"@.@.@.@.@.b i p a p l 2 @.@.@.@."
};
