<?xml version="1.0" encoding="utf-8"?>
<!-- Generator: Adobe Illustrator 13.0.0, SVG Export Plug-In . SVG Version: 6.00 Build 14948)  -->
<!DOCTYPE svg PUBLIC "-//W3C//DTD SVG 1.1//EN" "http://www.w3.org/Graphics/SVG/1.1/DTD/svg11.dtd">
<svg version="1.1" id="Layer_1" xmlns="http://www.w3.org/2000/svg" xmlns:xlink="http://www.w3.org/1999/xlink" x="0px" y="0px"
	 width="128px" height="128px" viewBox="0 0 128 128" enable-background="new 0 0 128 128" xml:space="preserve">
<g>
	<g>
		
			<linearGradient id="SVGID_1_" gradientUnits="userSpaceOnUse" x1="-408.6919" y1="879.3574" x2="-363.7666" y2="879.3574" gradientTransform="matrix(1 0 0 1 412.6201 -813.9912)">
			<stop  offset="0" style="stop-color:#181500"/>
			<stop  offset="1" style="stop-color:#5F5D5C"/>
		</linearGradient>
		<path fill="url(#SVGID_1_)" d="M33.714,18.617c-12.15,2.264-23.696,19.855-28.078,42.781V61.4
			c-4.378,22.928-0.128,43.539,10.33,50.119c0.924,0.582,2.031,0.791,3.104,0.596c12.146-2.266,23.691-19.855,28.076-42.781
			c4.377-22.93,0.131-43.543-10.33-50.123C35.892,18.629,34.784,18.418,33.714,18.617z"/>
		
			<linearGradient id="SVGID_2_" gradientUnits="userSpaceOnUse" x1="-332.3003" y1="881.1436" x2="-288.5474" y2="881.1436" gradientTransform="matrix(1 0 0 1 412.6201 -813.9912)">
			<stop  offset="0" style="stop-color:#181500"/>
			<stop  offset="1" style="stop-color:#5F5D5C"/>
		</linearGradient>
		<path fill="url(#SVGID_2_)" d="M121.22,62.627c-5.816-24.441-18.85-42.805-30.676-44.465c-9.812,6.807-13.184,29.074-7.371,53.516
			c5.816,24.439,18.852,42.801,30.678,44.463C123.661,109.334,127.032,87.068,121.22,62.627z"/>
	</g>
	
		<radialGradient id="SVGID_3_" cx="-348.6182" cy="870.5811" r="45.1829" gradientTransform="matrix(1 0 0 1 412.6201 -813.9912)" gradientUnits="userSpaceOnUse">
		<stop  offset="0" style="stop-color:#FAFAFA"/>
		<stop  offset="0.3109" style="stop-color:#F4F4F4"/>
		<stop  offset="0.7262" style="stop-color:#E3E3E3"/>
		<stop  offset="1" style="stop-color:#D4D4D4"/>
	</radialGradient>
	<path fill="url(#SVGID_3_)" d="M64.001,11.859c-25.201,0-45.631,23.363-45.631,52.184c0,7.506,1.396,14.637,3.891,21.084
		c11.568,10.146,26.035,16.191,41.74,16.191c15.709,0,30.174-6.045,41.744-16.191c2.492-6.447,3.889-13.578,3.889-21.084
		C109.634,35.223,89.204,11.859,64.001,11.859z"/>
	<path opacity="0.9" fill="#FFFFFF" d="M64.001,17.838c15.326,0,28.701,9.521,35.863,23.67h1.332
		c-6.744-15.705-20.861-26.52-37.195-26.52c-16.332,0-30.451,10.814-37.193,26.52h1.33C35.302,27.359,48.675,17.838,64.001,17.838z"
		/>
	
		<linearGradient id="SVGID_4_" gradientUnits="userSpaceOnUse" x1="-386.5229" y1="862.668" x2="-351.9658" y2="862.668" gradientTransform="matrix(1 0 0 1 412.6201 -813.9912)">
		<stop  offset="0" style="stop-color:#99DBF6"/>
		<stop  offset="1" style="stop-color:#00B2DE"/>
	</linearGradient>
	<path fill="url(#SVGID_4_)" d="M41.212,34.693c-1.602,2.275-3.387,4.51-5.305,6.641c-2.156,2.395-4.447,4.619-6.814,6.619
		c-1.74,1.473-2.812,3.584-2.975,5.859c-0.064,0.9,0.02,1.797,0.234,2.658c0.33,1.309,0.973,2.533,1.891,3.559
		c4.621,5.176,11.666,7.338,18.385,5.645c9.924-2.502,15.963-12.613,13.461-22.537c-1.047-4.141-3.51-7.824-6.941-10.365
		c-1.826-1.357-4.127-1.916-6.373-1.555C44.526,31.58,42.522,32.834,41.212,34.693z"/>
	<g>
		<g>
			<path fill="#FFFFFF" d="M91.521,55.455c0,0-1.469-20.066-19.648-9.193C71.87,46.262,74.138,64.68,91.521,55.455z"/>
			
				<linearGradient id="SVGID_5_" gradientUnits="userSpaceOnUse" x1="-334.7793" y1="861.6865" x2="-324.957" y2="861.6865" gradientTransform="matrix(1 0 0 1 412.6201 -813.9912)">
				<stop  offset="0" style="stop-color:#181500"/>
				<stop  offset="1" style="stop-color:#5F5D5C"/>
			</linearGradient>
			<circle fill="url(#SVGID_5_)" cx="82.751" cy="47.694" r="4.911"/>
			<path fill="#808184" d="M85.993,42.713c-3.879-2.018-8.873-1.229-14.842,2.342l-0.787,0.469l0.113,0.91
				c0.043,0.352,1.127,8.633,7.232,11.814c3.863,2.014,8.73,1.494,14.467-1.551l0.811-0.428l-0.066-0.916
				C92.892,54.971,92.163,45.922,85.993,42.713z M77.31,45.195c2.936-1.016,5.404-1.016,7.379,0.006
				c3.811,1.973,4.977,7.264,5.301,9.4c-0.914,0.447-1.832,0.896-2.68,1.189c-3.279,1.135-6.061,1.127-8.289-0.029
				c-3.756-1.949-5.152-6.732-5.586-8.754C74.796,46.248,76.103,45.613,77.31,45.195z"/>
		</g>
		<g>
			<path fill="#FFFFFF" d="M36.483,55.455c0,0,1.467-20.066,19.648-9.193C56.132,46.262,53.866,64.68,36.483,55.455z"/>
			
				<linearGradient id="SVGID_6_" gradientUnits="userSpaceOnUse" x1="-372.2812" y1="861.6865" x2="-362.459" y2="861.6865" gradientTransform="matrix(1 0 0 1 412.6201 -813.9912)">
				<stop  offset="0" style="stop-color:#181500"/>
				<stop  offset="1" style="stop-color:#5F5D5C"/>
			</linearGradient>
			<circle fill="url(#SVGID_6_)" cx="45.251" cy="47.694" r="4.911"/>
			<path fill="#808184" d="M35.083,55.354l-0.066,0.916l0.809,0.428c5.736,3.043,10.604,3.564,14.465,1.551
				c6.109-3.182,7.193-11.463,7.236-11.814l0.113-0.91l-0.787-0.469c-5.971-3.57-10.963-4.359-14.842-2.342
				C35.839,45.922,35.11,54.971,35.083,55.354z M54.569,47.01c-0.434,2.02-1.832,6.805-5.586,8.754
				c-2.23,1.156-5.01,1.164-8.289,0.027c-0.848-0.293-1.766-0.742-2.682-1.189c0.324-2.135,1.492-7.426,5.303-9.4
				c1.975-1.02,4.443-1.021,7.379-0.004C51.901,45.613,53.208,46.248,54.569,47.01z"/>
		</g>
	</g>
	<g>
		
			<linearGradient id="SVGID_7_" gradientUnits="userSpaceOnUse" x1="-373.498" y1="883.1289" x2="-369.0918" y2="883.1289" gradientTransform="matrix(1 0 0 1 412.6201 -813.9912)">
			<stop  offset="0" style="stop-color:#99DBF6"/>
			<stop  offset="1" style="stop-color:#00B2DE"/>
		</linearGradient>
		<ellipse fill="url(#SVGID_7_)" cx="41.325" cy="69.137" rx="2.203" ry="1.686"/>
		
			<linearGradient id="SVGID_8_" gradientUnits="userSpaceOnUse" x1="-332.1621" y1="890.5146" x2="-327.7559" y2="890.5146" gradientTransform="matrix(1 0 0 1 412.6201 -813.9912)">
			<stop  offset="0" style="stop-color:#99DBF6"/>
			<stop  offset="1" style="stop-color:#00B2DE"/>
		</linearGradient>
		<ellipse fill="url(#SVGID_8_)" cx="82.661" cy="76.522" rx="2.203" ry="1.685"/>
		
			<linearGradient id="SVGID_9_" gradientUnits="userSpaceOnUse" x1="-370.3887" y1="888.4043" x2="-364.6855" y2="888.4043" gradientTransform="matrix(1 0 0 1 412.6201 -813.9912)">
			<stop  offset="0" style="stop-color:#99DBF6"/>
			<stop  offset="1" style="stop-color:#00B2DE"/>
		</linearGradient>
		<ellipse fill="url(#SVGID_9_)" cx="45.083" cy="74.412" rx="2.852" ry="2.182"/>
		
			<linearGradient id="SVGID_10_" gradientUnits="userSpaceOnUse" x1="-329.4414" y1="885.5547" x2="-323.7402" y2="885.5547" gradientTransform="matrix(1 0 0 1 412.6201 -813.9912)">
			<stop  offset="0" style="stop-color:#99DBF6"/>
			<stop  offset="1" style="stop-color:#00B2DE"/>
		</linearGradient>
		<ellipse fill="url(#SVGID_10_)" cx="86.03" cy="71.562" rx="2.85" ry="2.18"/>
	</g>
	
		<line fill="none" stroke="#231F20" stroke-width="4.1836" stroke-linecap="round" stroke-linejoin="round" x1="64.001" y1="67.443" x2="64.001" y2="89.572"/>
	
		<linearGradient id="SVGID_11_" gradientUnits="userSpaceOnUse" x1="-357.5625" y1="872.6582" x2="-350.1259" y2="878.6074" gradientTransform="matrix(1 0 0 1 412.6201 -813.9912)">
		<stop  offset="0" style="stop-color:#181500"/>
		<stop  offset="1" style="stop-color:#5F5D5C"/>
	</linearGradient>
	<path fill="url(#SVGID_11_)" d="M54.604,60.91c-1.152,0.346-2.199,1.004-2.611,2.137c-0.414,1.133-0.391,2.18,0.27,3.189
		l1.008,1.537l5.562,6.654c1.316,1.57,3.199,2.475,5.17,2.475c1.971-0.002,3.854-0.902,5.166-2.475l5.564-6.656l1.006-1.535
		c0.66-1.01,0.684-2.057,0.27-3.189c-0.412-1.133-1.457-1.791-2.611-2.137c-2.943-0.889-6.105-1.336-9.396-1.336
		S57.55,60.021,54.604,60.91z"/>
	<g>
		<circle fill="#FFFFFF" cx="46.228" cy="48.041" r="0.973"/>
		<circle fill="#FFFFFF" cx="81.776" cy="48.041" r="0.973"/>
	</g>
</g>
</svg>
