<?xml version="1.0" encoding="UTF-8" standalone="no"?>
<!-- Generator: Adobe Illustrator 13.0.0, SVG Export Plug-In . SVG Version: 6.00 Build 14948)  -->

<svg
   xmlns:dc="http://purl.org/dc/elements/1.1/"
   xmlns:cc="http://creativecommons.org/ns#"
   xmlns:rdf="http://www.w3.org/1999/02/22-rdf-syntax-ns#"
   xmlns:svg="http://www.w3.org/2000/svg"
   xmlns="http://www.w3.org/2000/svg"
   xmlns:sodipodi="http://sodipodi.sourceforge.net/DTD/sodipodi-0.dtd"
   xmlns:inkscape="http://www.inkscape.org/namespaces/inkscape"
   version="1.1"
   id="Layer_1"
   x="0px"
   y="0px"
   width="128px"
   height="128px"
   viewBox="0 0 128 128"
   enable-background="new 0 0 128 128"
   xml:space="preserve"
   inkscape:version="0.48.4 r9939"
   sodipodi:docname="pisi.svg"
   inkscape:export-filename="/home/maidis/happy-kitty-logo.png"
   inkscape:export-xdpi="180"
   inkscape:export-ydpi="180"><metadata
     id="metadata131"><rdf:RDF><cc:Work
         rdf:about=""><dc:format>image/svg+xml</dc:format><dc:type
           rdf:resource="http://purl.org/dc/dcmitype/StillImage" /><dc:title></dc:title></cc:Work></rdf:RDF></metadata><defs
     id="defs129"><linearGradient
       id="SVGID_3_-4"
       gradientUnits="userSpaceOnUse"
       x1="-114.9897"
       y1="-871.33838"
       x2="-114.9897"
       y2="-875.92761"
       gradientTransform="matrix(0.9592,0.2827,0.2827,-0.9592,444.1304,-735.9191)"><stop
         offset="0"
         style="stop-color:#DEDEDE"
         id="stop28" /><stop
         offset="1"
         style="stop-color:#FEFEFE"
         id="stop30-7" /></linearGradient><linearGradient
       id="SVGID_4_-4"
       gradientUnits="userSpaceOnUse"
       x1="-83.4375"
       y1="-1014.0278"
       x2="-154.76109"
       y2="-977.86139"
       gradientTransform="matrix(0.9098,0.415,0.415,-0.9098,601.2445,-757.3582)"><stop
         offset="0"
         style="stop-color:#DEDEDE"
         id="stop35" /><stop
         offset="1"
         style="stop-color:#FEFEFE"
         id="stop37-4" /></linearGradient><linearGradient
       id="SVGID_5_-3"
       gradientUnits="userSpaceOnUse"
       x1="-44.412601"
       y1="-192.2471"
       x2="-44.412601"
       y2="-201.4326"
       gradientTransform="matrix(0.9984,0.0568,0.0568,-0.9984,147.0016,-93.5403)"><stop
         offset="0"
         style="stop-color:#C51015"
         id="stop52" /><stop
         offset="1"
         style="stop-color:#E20A16"
         id="stop54" /></linearGradient><linearGradient
       id="SVGID_6_-0"
       gradientUnits="userSpaceOnUse"
       x1="-21.388201"
       y1="-197.5625"
       x2="-21.388201"
       y2="-206.748"
       gradientTransform="matrix(0.9984,0.0568,0.0568,-0.9984,147.0016,-93.5403)"><stop
         offset="0"
         style="stop-color:#F3A800"
         id="stop59" /><stop
         offset="1"
         style="stop-color:#FFBF00"
         id="stop61" /></linearGradient><linearGradient
       id="SVGID_7_-7"
       gradientUnits="userSpaceOnUse"
       x1="-30.7568"
       y1="-185.6152"
       x2="-30.7568"
       y2="-194.7993"
       gradientTransform="matrix(0.9984,0.0568,0.0568,-0.9984,147.0016,-93.5403)"><stop
         offset="0"
         style="stop-color:#80C11B"
         id="stop66" /><stop
         offset="1"
         style="stop-color:#80E21B"
         id="stop68" /></linearGradient><linearGradient
       id="SVGID_8_-8"
       gradientUnits="userSpaceOnUse"
       x1="-35.044899"
       y1="-204.1938"
       x2="-35.044899"
       y2="-213.37891"
       gradientTransform="matrix(0.9984,0.0568,0.0568,-0.9984,147.0016,-93.5403)"><stop
         offset="0"
         style="stop-color:#57C7F1"
         id="stop73" /><stop
         offset="1"
         style="stop-color:#99DBF6"
         id="stop75" /></linearGradient><linearGradient
       id="SVGID_9_-6"
       gradientUnits="userSpaceOnUse"
       x1="-88.946297"
       y1="-196.1416"
       x2="-88.946297"
       y2="-226.2002"
       gradientTransform="matrix(0.9981,0.0613,0.0613,-0.9981,155.9071,-117.3663)"><stop
         offset="0"
         style="stop-color:#80C11B"
         id="stop84" /><stop
         offset="1"
         style="stop-color:#80E21B"
         id="stop86" /></linearGradient></defs><sodipodi:namedview
     pagecolor="#ffffff"
     bordercolor="#666666"
     borderopacity="1"
     objecttolerance="10"
     gridtolerance="10"
     guidetolerance="10"
     inkscape:pageopacity="0"
     inkscape:pageshadow="2"
     inkscape:window-width="1680"
     inkscape:window-height="995"
     id="namedview127"
     showgrid="false"
     inkscape:zoom="3.1267378"
     inkscape:cx="124.01843"
     inkscape:cy="5.4992352"
     inkscape:window-x="-2"
     inkscape:window-y="-3"
     inkscape:window-maximized="1"
     inkscape:current-layer="Layer_1" /><g
     id="g3"
     transform="matrix(1.8102714,-0.00224103,0.00359934,1.7699988,-53.483747,-67.95917)"><linearGradient
       id="SVGID_2_"
       gradientUnits="userSpaceOnUse"
       x1="-17.893999"
       y1="-31.6499"
       x2="-77.366402"
       y2="9.993"
       gradientTransform="matrix(0.9976,0,0,-0.9975,112.6875,11.5658)"><stop
         offset="0"
         style="stop-color:#C5C6C8"
         id="stop21" /><stop
         offset="1"
         style="stop-color:#EFF0F0"
         id="stop23" /></linearGradient><g
       id="g27"><linearGradient
         id="SVGID_3_"
         gradientUnits="userSpaceOnUse"
         x1="-76.565399"
         y1="-65.9785"
         x2="-76.565399"
         y2="-42.109901"
         gradientTransform="matrix(1,0,0,-1,123.3447,2.9531)"><stop
           offset="0"
           style="stop-color:#EC008C"
           id="stop30" /><stop
           offset="1"
           style="stop-color:#C40075"
           id="stop32" /></linearGradient><path
         d="m 58.895,62.534 c 0,0 -1.862,-17.564 -23.375,-20.78 0,0 -7.655,29.935 10.548,32.657 18.203,2.72 12.827,-11.877 12.827,-11.877 z"
         id="path34"
         style="fill:url(#SVGID_3_);stroke:#969696;stroke-linecap:round;stroke-linejoin:round"
         inkscape:connector-curvature="0" /><linearGradient
         id="SVGID_4_"
         gradientUnits="userSpaceOnUse"
         x1="-40.586399"
         y1="-65.9785"
         x2="-40.586399"
         y2="-42.109901"
         gradientTransform="matrix(1,0,0,-1,123.3447,2.9531)"><stop
           offset="0"
           style="stop-color:#EC008C"
           id="stop37" /><stop
           offset="1"
           style="stop-color:#C40075"
           id="stop39" /></linearGradient><path
         d="m 70.645,62.534 c 0,0 1.861,-17.564 23.373,-20.78 0,0 7.653,29.935 -10.55,32.657 C 65.266,77.131 70.645,62.534 70.645,62.534 z"
         id="path41"
         style="fill:url(#SVGID_4_);stroke:#969696;stroke-linecap:round;stroke-linejoin:round"
         inkscape:connector-curvature="0" /><linearGradient
         id="SVGID_5_"
         gradientUnits="userSpaceOnUse"
         x1="-48.415501"
         y1="-80.014198"
         x2="-76.759201"
         y2="-60.167702"
         gradientTransform="matrix(1,0,0,-1,123.3447,2.9531)"><stop
           offset="0"
           style="stop-color:#DEDEDE"
           id="stop44" /><stop
           offset="1"
           style="stop-color:#FEFEFE"
           id="stop46" /></linearGradient><path
         d="m 64.768,103.605 c 15.272,0 28.205,-10.04 32.613,-23.9 C 92.973,65.842 80.04,44.726 64.768,44.726 c -15.271,0 -28.203,21.116 -32.611,34.979 4.408,13.86 17.34,23.9 32.611,23.9 z"
         id="path48"
         style="fill:url(#SVGID_5_);stroke:#969696;stroke-linecap:round;stroke-linejoin:round"
         inkscape:connector-curvature="0" /><g
         id="g50"><g
           id="g52"><g
             id="g54"><line
               x1="53.596001"
               y1="92.016998"
               x2="36.07"
               y2="105.643"
               id="line56"
               style="fill:none" /><path
               d="m 53.357,91.577 -17.525,13.625 c -0.204,0.16 -0.261,0.482 -0.129,0.728 0.132,0.242 0.403,0.311 0.606,0.152 L 53.834,92.459 c 0.202,-0.158 0.261,-0.484 0.128,-0.728 -0.13,-0.243 -0.402,-0.311 -0.605,-0.154 z"
               id="path58"
               inkscape:connector-curvature="0"
               style="fill:#969696" /></g><g
             id="g60"><line
               x1="57.540001"
               y1="92.541"
               x2="40.014"
               y2="106.168"
               id="line62"
               style="fill:none" /><path
               d="m 57.3,92.103 -17.526,13.623 c -0.203,0.157 -0.26,0.483 -0.128,0.727 0.132,0.244 0.403,0.312 0.605,0.156 L 57.777,92.98 c 0.203,-0.157 0.262,-0.482 0.129,-0.727 -0.133,-0.241 -0.403,-0.309 -0.606,-0.15 z"
               id="path64"
               inkscape:connector-curvature="0"
               style="fill:#969696" /></g></g><g
           id="g66"><g
             id="g68"><line
               x1="75.941002"
               y1="92.016998"
               x2="93.467003"
               y2="105.643"
               id="line70"
               style="fill:none" /><path
               d="m 76.18,91.577 17.525,13.625 c 0.203,0.16 0.26,0.482 0.129,0.728 -0.132,0.242 -0.402,0.311 -0.605,0.152 L 75.703,92.459 c -0.203,-0.158 -0.262,-0.484 -0.13,-0.728 0.133,-0.243 0.406,-0.311 0.607,-0.154 z"
               id="path72"
               inkscape:connector-curvature="0"
               style="fill:#969696" /></g><g
             id="g74"><line
               x1="71.998001"
               y1="92.541"
               x2="89.523003"
               y2="106.168"
               id="line76"
               style="fill:none" /><path
               d="m 72.236,92.103 17.525,13.623 c 0.202,0.157 0.26,0.483 0.129,0.727 -0.134,0.243 -0.404,0.312 -0.605,0.156 L 71.759,92.98 c -0.202,-0.157 -0.261,-0.482 -0.129,-0.727 0.134,-0.241 0.404,-0.309 0.606,-0.15 z"
               id="path78"
               inkscape:connector-curvature="0"
               style="fill:#969696" /></g></g></g><path
         d="m 46.485,75.449 c 0,0 12.129,-3.232 9.434,9.704 0,0 -11.32,2.427 -9.434,-9.704 z"
         id="path80"
         inkscape:connector-curvature="0"
         style="fill:#ffffff" /><path
         d="m 83.052,75.449 c 0,0 -12.13,-3.232 -9.433,9.704 0,0 11.319,2.427 9.433,-9.704 z"
         id="path82"
         inkscape:connector-curvature="0"
         style="fill:#ffffff" /><line
         x1="64.769997"
         y1="93.445999"
         x2="64.769997"
         y2="98.498001"
         id="line84"
         style="fill:none;stroke:#969696;stroke-width:2;stroke-linecap:round;stroke-linejoin:round" /><linearGradient
         id="SVGID_6_"
         gradientUnits="userSpaceOnUse"
         x1="-71.436501"
         y1="-52.077599"
         x2="-62.0527"
         y2="-52.077599"
         gradientTransform="matrix(1,0,0,-1,123.3447,2.9531)"><stop
           offset="0"
           style="stop-color:#9A9A9A"
           id="stop87" /><stop
           offset="1"
           style="stop-color:#DEDEDE"
           id="stop89" /></linearGradient><polygon
         points="61.292,63.718 58.077,46.343 51.908,48.778 "
         id="polygon91"
         style="fill:url(#SVGID_6_)" /><linearGradient
         id="SVGID_7_"
         gradientUnits="userSpaceOnUse"
         x1="-63.684601"
         y1="-50.800301"
         x2="-57.702099"
         y2="-50.800301"
         gradientTransform="matrix(1,0,0,-1,123.3447,2.9531)"><stop
           offset="0"
           style="stop-color:#9A9A9A"
           id="stop94" /><stop
           offset="1"
           style="stop-color:#DEDEDE"
           id="stop96" /></linearGradient><polygon
         points="64.208,62.294 65.643,45.332 59.66,45.212 "
         id="polygon98"
         style="fill:url(#SVGID_7_)" /><linearGradient
         id="SVGID_8_"
         gradientUnits="userSpaceOnUse"
         x1="-73.597702"
         y1="-76.079102"
         x2="-67.471703"
         y2="-76.079102"
         gradientTransform="matrix(1,0,0,-1,123.3447,2.9531)"><stop
           offset="0"
           style="stop-color:#00B2DE"
           id="stop101" /><stop
           offset="1"
           style="stop-color:#99DBF6"
           id="stop103" /></linearGradient><circle
         cx="52.810001"
         cy="79.031998"
         r="3.063"
         id="circle105"
         d="m 55.873001,79.031998 c 0,1.691648 -1.371351,3.063 -3.063,3.063 -1.691648,0 -3.063,-1.371352 -3.063,-3.063 0,-1.691648 1.371352,-3.063 3.063,-3.063 1.691649,0 3.063,1.371352 3.063,3.063 z"
         style="fill:url(#SVGID_8_)"
         sodipodi:cx="52.810001"
         sodipodi:cy="79.031998"
         sodipodi:rx="3.063"
         sodipodi:ry="3.063" /><linearGradient
         id="SVGID_9_"
         gradientUnits="userSpaceOnUse"
         x1="-49.721699"
         y1="-76.079102"
         x2="-43.595699"
         y2="-76.079102"
         gradientTransform="matrix(1,0,0,-1,123.3447,2.9531)"><stop
           offset="0"
           style="stop-color:#00B2DE"
           id="stop108" /><stop
           offset="1"
           style="stop-color:#99DBF6"
           id="stop110" /></linearGradient><circle
         cx="76.685997"
         cy="79.031998"
         r="3.063"
         id="circle112"
         d="m 79.748997,79.031998 c 0,1.691648 -1.371352,3.063 -3.063,3.063 -1.691648,0 -3.063,-1.371352 -3.063,-3.063 0,-1.691648 1.371352,-3.063 3.063,-3.063 1.691648,0 3.063,1.371352 3.063,3.063 z"
         style="fill:url(#SVGID_9_)"
         sodipodi:cx="76.685997"
         sodipodi:cy="79.031998"
         sodipodi:rx="3.063"
         sodipodi:ry="3.063" /><path
         d="m 46.259,74.603 -0.553,0.147 -0.087,0.563 c -0.623,4.003 0.064,6.978 2.039,8.845 3.123,2.949 8.229,1.896 8.444,1.852 l 0.559,-0.12 0.115,-0.56 c 0.886,-4.246 0.33,-7.352 -1.65,-9.227 -3.151,-2.98 -8.635,-1.56 -8.867,-1.5 z m 7.666,2.778 c 1.005,0.955 1.51,2.41 1.51,4.351 0,0.795 -0.106,1.694 -0.277,2.653 -1.279,0.158 -4.384,0.312 -6.3,-1.506 -1.138,-1.076 -1.709,-2.713 -1.709,-4.881 0,-0.559 0.076,-1.19 0.153,-1.822 1.325,-0.243 4.683,-0.635 6.623,1.205 z"
         id="path114"
         inkscape:connector-curvature="0"
         style="fill:#969696" /><path
         d="m 74.41,76.104 c -1.98,1.875 -2.535,4.979 -1.648,9.228 l 0.115,0.559 0.559,0.119 c 0.215,0.047 5.32,1.1 8.443,-1.851 1.977,-1.866 2.661,-4.842 2.039,-8.845 L 83.83,74.751 83.277,74.603 c -0.23,-0.06 -5.714,-1.48 -8.867,1.501 z m -0.308,5.627 c 0,-1.938 0.506,-3.396 1.51,-4.351 1.941,-1.842 5.299,-1.448 6.625,-1.205 0.076,0.632 0.152,1.265 0.152,1.822 0,2.168 -0.572,3.805 -1.707,4.881 -1.918,1.816 -5.022,1.664 -6.303,1.506 -0.17,-0.958 -0.277,-1.858 -0.277,-2.653 z"
         id="path116"
         inkscape:connector-curvature="0"
         style="fill:#969696" /><g
         id="g118"><linearGradient
           id="SVGID_10_"
           gradientUnits="userSpaceOnUse"
           x1="-64.433601"
           y1="-89.594704"
           x2="-52.7188"
           y2="-89.594704"
           gradientTransform="matrix(1,0,0,-1,123.3447,2.9531)"><stop
             offset="0"
             style="stop-color:#9A9A9A"
             id="stop121" /><stop
             offset="1"
             style="stop-color:#DEDEDE"
             id="stop123" /></linearGradient><path
           d="m 63.19,95.187 c 0.868,1.037 2.289,1.037 3.156,0 l 3.93,-4.701 c 0.152,-0.183 0.27,-0.358 0.351,-0.526 -1.758,-0.529 -3.747,-0.828 -5.856,-0.828 -2.11,0 -4.101,0.299 -5.858,0.828 0.082,0.168 0.197,0.344 0.35,0.526 l 3.927,4.701 z"
           id="path125"
           style="fill:url(#SVGID_10_)"
           inkscape:connector-curvature="0" /></g></g></g><text
     xml:space="preserve"
     style="font-size:12px;font-style:normal;font-weight:normal;line-height:125%;letter-spacing:0px;word-spacing:0px;fill:#000000;fill-opacity:1;stroke:none;font-family:Sans"
     x="-70.041054"
     y="159.02274"
     id="text4009"
     sodipodi:linespacing="125%"><tspan
       sodipodi:role="line"
       id="tspan4011"
       x="-70.041054"
       y="159.02274" /><tspan
       sodipodi:role="line"
       x="-70.041054"
       y="174.02274"
       id="tspan4013">icons: milky by Banu Önal - http://kde-look.org/content/show.php/Milky?content=133124</tspan></text>
</svg>