/* XPM */
static const char * mozart[] = {
"50 58 209 2",
"  	c None",
". 	c #181818",
"+ 	c #161616",
"@ 	c #191919",
"# 	c #171717",
"$ 	c #141414",
"% 	c #151515",
"& 	c #131313",
"* 	c #101010",
"= 	c #111111",
"- 	c #121212",
"; 	c #1A1A1A",
"> 	c #1B1B1B",
", 	c #1C1C1C",
"' 	c #222222",
") 	c #1F1F1F",
"! 	c #212121",
"~ 	c #1E1E1E",
"{ 	c #232323",
"] 	c #262626",
"^ 	c #282828",
"/ 	c #272727",
"( 	c #303030",
"_ 	c #323232",
": 	c #2E2E2E",
"< 	c #292929",
"[ 	c #2D2D2D",
"} 	c #353535",
"| 	c #3D3D3D",
"1 	c #444444",
"2 	c #474747",
"3 	c #535353",
"4 	c #4E4E4E",
"5 	c #505050",
"6 	c #424242",
"7 	c #3C3C3C",
"8 	c #333333",
"9 	c #2B2B2B",
"0 	c #1D1D1D",
"a 	c #464646",
"b 	c #4A4A4A",
"c 	c #5B5B5B",
"d 	c #6A6A6A",
"e 	c #747474",
"f 	c #676767",
"g 	c #6F6F6F",
"h 	c #515151",
"i 	c #3A3A3A",
"j 	c #383838",
"k 	c #242424",
"l 	c #484848",
"m 	c #5A5A5A",
"n 	c #666666",
"o 	c #717171",
"p 	c #787878",
"q 	c #7A7A7A",
"r 	c #767676",
"s 	c #797979",
"t 	c #696969",
"u 	c #656565",
"v 	c #5D5D5D",
"w 	c #575757",
"x 	c #4D4D4D",
"y 	c #2F2F2F",
"z 	c #494949",
"A 	c #525252",
"B 	c #848484",
"C 	c #818181",
"D 	c #7C7C7C",
"E 	c #7D7D7D",
"F 	c #808080",
"G 	c #737373",
"H 	c #6E6E6E",
"I 	c #6B6B6B",
"J 	c #606060",
"K 	c #545454",
"L 	c #313131",
"M 	c #414141",
"N 	c #686868",
"O 	c #888888",
"P 	c #8D8D8D",
"Q 	c #8A8A8A",
"R 	c #868686",
"S 	c #7F7F7F",
"T 	c #7E7E7E",
"U 	c #636363",
"V 	c #2A2A2A",
"W 	c #343434",
"X 	c #404040",
"Y 	c #898989",
"Z 	c #8B8B8B",
"` 	c #909090",
" .	c #969696",
"..	c #929292",
"+.	c #979797",
"@.	c #757575",
"#.	c #4B4B4B",
"$.	c #202020",
"%.	c #2C2C2C",
"&.	c #7B7B7B",
"*.	c #828282",
"=.	c #8C8C8C",
"-.	c #9B9B9B",
";.	c #ABABAB",
">.	c #B6B6B6",
",.	c #ACACAC",
"'.	c #B2B2B2",
").	c #A1A1A1",
"!.	c #6C6C6C",
"~.	c #3F3F3F",
"{.	c #252525",
"].	c #434343",
"^.	c #858585",
"/.	c #9F9F9F",
"(.	c #B7B7B7",
"_.	c #BBBBBB",
":.	c #C9C9C9",
"<.	c #CCCCCC",
"[.	c #C7C7C7",
"}.	c #C3C3C3",
"|.	c #A0A0A0",
"1.	c #595959",
"2.	c #949494",
"3.	c #878787",
"4.	c #9D9D9D",
"5.	c #A7A7A7",
"6.	c #BDBDBD",
"7.	c #CBCBCB",
"8.	c #D6D6D6",
"9.	c #DADADA",
"0.	c #DBDBDB",
"a.	c #D5D5D5",
"b.	c #C8C8C8",
"c.	c #A3A3A3",
"d.	c #646464",
"e.	c #373737",
"f.	c #3E3E3E",
"g.	c #393939",
"h.	c #363636",
"i.	c #5E5E5E",
"j.	c #9C9C9C",
"k.	c #C6C6C6",
"l.	c #CFCFCF",
"m.	c #D4D4D4",
"n.	c #DEDEDE",
"o.	c #D2D2D2",
"p.	c #CECECE",
"q.	c #B9B9B9",
"r.	c #A4A4A4",
"s.	c #838383",
"t.	c #8E8E8E",
"u.	c #8F8F8F",
"v.	c #B0B0B0",
"w.	c #D1D1D1",
"x.	c #D8D8D8",
"y.	c #D9D9D9",
"z.	c #D7D7D7",
"A.	c #CACACA",
"B.	c #C5C5C5",
"C.	c #BCBCBC",
"D.	c #BABABA",
"E.	c #AFAFAF",
"F.	c #6D6D6D",
"G.	c #AEAEAE",
"H.	c #BFBFBF",
"I.	c #DDDDDD",
"J.	c #DCDCDC",
"K.	c #D0D0D0",
"L.	c #777777",
"M.	c #B4B4B4",
"N.	c #C0C0C0",
"O.	c #B3B3B3",
"P.	c #999999",
"Q.	c #555555",
"R.	c #565656",
"S.	c #959595",
"T.	c #919191",
"U.	c #A5A5A5",
"V.	c #B1B1B1",
"W.	c #9A9A9A",
"X.	c #A9A9A9",
"Y.	c #CDCDCD",
"Z.	c #E1E1E1",
"`.	c #727272",
" +	c #5F5F5F",
".+	c #A8A8A8",
"++	c #626262",
"@+	c #707070",
"#+	c #DFDFDF",
"$+	c #989898",
"%+	c #616161",
"&+	c #AAAAAA",
"*+	c #454545",
"=+	c #C4C4C4",
"-+	c #D3D3D3",
";+	c #3B3B3B",
">+	c #4C4C4C",
",+	c #BEBEBE",
"'+	c #ADADAD",
")+	c #585858",
"!+	c #C1C1C1",
"~+	c #A2A2A2",
"{+	c #B8B8B8",
"]+	c #9E9E9E",
"^+	c #A6A6A6",
"/+	c #B5B5B5",
"(+	c #C2C2C2",
"_+	c #5C5C5C",
":+	c #4F4F4F",
". + @ # # + $ $ % & * = - & & + + ; > , ' ) ! ! ! ) ~ ~ @ , $ = - * * * & & - & + $ + $ % ; # + + . ",
"; . > . # @ % % # - & - $ % , { ] ^ / ( _ ( : : ( < ] / ' { ~ > & % % & & & & % % % # . @ . . + ; ; ",
". # @ . # + . & & & - # ' ] [ ( } | 1 2 3 4 4 5 6 6 7 | 8 [ 9 ~ ~ + % $ - & & # ; . . # # ; # @ > ; ",
"+ . . # + @ + + & & 0 / [ 8 7 a b c d e d f g g c c 3 h 1 i j [ k ; + + + # @ @ , # @ @ # . # # # @ ",
". . . ; # $ + & + ) / ( } | l m n o p q r e s q t n u v 5 w x i [ ) % + % % @ , ; # . @ @ @ # $ % @ ",
"# + + $ % + # # > { y i z A w n p B C D s p E F q G H I J K a } < ~ + # + # > ; ; . ; @ ; > + @ + # ",
"% % # $ $ % & # ] L } M l w N O P Q R S s s r T Q F o N U 3 6 j ^ > $ + % % + , @ > > , @ @ # @ + + ",
"% # + + + $ $ > V W X 4 h n S Y Z P ` q E  ...Q +.R @.t u 3 #.7 ( $.; # # % % @ 0 $.0 , . . + + . & ",
"$ + . $ % # # $.%.j X #.v &.*.O ` ` =.=.-.;.>.,.'.).R e !.N J K ~.[ $.; . . @ > {., , ; ; + . + % # ",
"+ + + % + # , ] : ].1 h f *...` P ^./.'.(._.:.<.[.}.>.|.E !.n K M } { $.k {.# . ) ) , # # + % % & $ ",
"+ + # + . # , [ | X #.1.d P 2.3.^.4.5.6.}.7.8.9.0.a.:.b.(.c.3.d.b M e.f.M g.^ @ > > ; > ; @ % % & & ",
"+ & & + % @ ! 9 h.].3 i.o D O =.+.j.>.k.l.m.0.n.n.9.o.l.p.[.q.r.s.p 3.C m M 9 @ > 0 0 @ > # # . $ # ",
"$ & + # . . { 9 8 X 4 J !.s O t.u.r.v.k.w.m.x.9.0.9.y.z.l.A.B.6.C.D.E.` H #.} $.; ) ) > , @ + % $ # ",
"% # # + > ! { V j b A i.F.E Q Y ..c.G.H.p.w.z.9.0.I.J.J.a.K.w.A.}.6.(.4.L.h | : @ $., ~ @ @ ; . + # ",
"# % $ @ ; ~ / V } 4 w n e G 3.O u.j.r.M.7.w.z.z.y.I.I.0.y.z.o.p.:.N.O.P.C Q.| g.@ ~ ' > ; , ; @ . # ",
"& # + ; # ! { V e.6 R.t T *.s.O S.T.U.E.[.o.9.y.9.0.9.I.z.z.l.p.:.H.V.4.q w X e.@ $.{.$.0 0 > , ; # ",
"# $ # . ; ) $.] y W z d.g r D 3.Q Z W.X.k.Y.x.9.0.J.z.0.Z.z.p.:.}.D.M.4.`.b X _ > ) $.$., 0 , > ; . ",
"% $ $ . , $.{ k V ~.5  +*.o H q T T S..+<.8.y.x.y.I.I.I.I.x.7.:.H.(.,.P.++a M h.> . ~ $.0 ) ) # @ + ",
"# + @ # ; 0 { } 3 g K %.d Q.++@+D Q W.M.m.9.y.x.J.I.n.#+J.0.<.:.N.v.G.$+i.1 f.8 ) . 0 { , ~ @ @ > . ",
"# # $ ; > k ].J U A {.( %.A %+f T ` .+w.8.8.y.y.}.&+C.:.p.7.7.k.D.(.M.=.].k ~ ) @ . ) ' ' 0 , , 0 , ",
"@ % @ . k e.a b h.] < 0 *+n f G -.-.=+m.z.z.w.r.).e *+9 < 7 c -..+X.E.i.~ [ W ! ; # ! < ~ $.~ ; ; @ ",
"+ ; ; > < ( y {., ; , ].c g n m s.Y A.-+z.-+>.V.H.'.P %+7 ;+h.b R 4.^.( b b h./ ; % ; { $.0 ) 0 $.) ",
". . . , / { > ; + > e. +p P.*+j f q k.b.7.p.>.r.C q w h.[ [ *+J s.Y a j 1 : ] 0 0 + + , ! ) $.0 $., ",
"% > > , $.> # . { 1 N L.e g L k < R B.l.w.7.V.`.1 { ; a X < 4 &.'.E._ ) 0 ) 9 0 0 # # , k 0 ' $.~ ; ",
"+ + . . ; . # V >+v t ++2 9 , + {.O D.}.:.=+,+'+P G >+g >+;+G &+'.q.l 7 #.~.%.! ! $ % > { ' ' $., @ ",
"$ . # + # > W z )+R.x g.> # % & < D G.!+}.b.C.D.,+(.~+!.a 3 5.r.V.6.Q 9 y ~.L V k # + , [ ~ ~ ) > ; ",
"+ . % . 0 ] f.].z 7 V , # # 0 ; { !.,.{+=+=+N.M.O.V.]+e `.U.G.X.{+N.,.l _ f.X f.k # ; > {.~ , ~ ~ @ ",
"# # + ; # ^ } h.9 > # . # ' a ] ~.T ^+/+,+6.H.M.U.).X.^+V.E.V.'./+6.6.g < f.*+;+{ ; ~ ^ ! ! ~ ! 0 0 ",
". # ~ ~ $ ! {.! @ # + 0 ) ! [ x %+S c.O.>.q.q.{+{+D.q.;.&+^+,.v.6.N.!+Z V W f.} k k ] {.! ! $.) ) 0 ",
"# # > $.% . . # # + @ ' 1 e t  +R.&.W.X.;.O.q.>.>.6.(+M.,.=.e u./+,+N.|.5 9 e.( ] / ' { ' { ~ 0 ~ 0 ",
"+ & 0 0 . . % % $ + @ % ! R.`.f l `.|.G.U.v.O.C.,+k.=+>.^+s.O &+'+M.[.(.f [ W y < / ] k {.) ) ~ ! , ",
"@ . ; + @ & % % & + , + . k w h L F.P.;.U..+E.6.,+6.,+'./.T.4.O -.U.!+.+w < L ^ / / / ' $.{.) ) ' ) ",
"% ; . + # % % % $ 0 0 . $ $ ' 7 ;+)+ .5.'.O.E.(.q.H.,+'.O.M._. .&.g t #.[ j g.V V / / ' ! k { ) 0 0 ",
"% # # # % + % & = $.) . % & # h s x C U.,.'+G.M.D.q.D.M.,+,+H.,+,+'.Q.^ / ;+7 < %.^ < { ' k ) $.; ~ ",
"; ; + . . + % % & ) ! . @ # > 2 O m t T.^+.+'.V.q._.6.}.6.'.r.,.D./.K 1 { g.i ^ ] {.{ k {.! $., 0 > ",
"+ . % . . + & & $ ' { . # $ k e.C 3.K &...U.G.{+C.N.(+B..+%+>+@.r &. +8 {.6 j ] < ] k {.{ ! ~ ~ 0 ; ",
". > @ + + + $ & & ) < $.$ $ 7 N H S.d _+T j..+E.E._.N.C.P.2.Q c 5 7 } _ : i %.{./ / ] ^ ' ' $.' 0 , ",
"; . @ # # $ % - & 0 } $.& ] X 4.r. .t.Q.d.3.).^+G./+N.,+/+_.D.E.5.C 5 ~.] < k {.] {.^ ^ { ! ' $.$.0 ",
"# . + # % + & % ; ' | $.% ^ L r 6./+&+B z g ` ^+U.O.6.H.6.V.5.^+Y #.i ;+^ / { k < ' {.{./ { ! ) 0 0 ",
"> # # % . # # > > k / , - 7 i M *._.}.=+j.3 t =.]+;.q.}.(+O.c.W.@+b Q.].V < k ' < k / ' ' ) ~ ~ ~ 0 ",
". . . # @ $ . > @ - $ % > X ;+6 >+F k.p.z.6.d.)+&.3.4.&+/+O.E.G./.E G 1 9 %.{./ / ] k ] ] ! ) 0 0 ) ",
"> + + # . & # . . + - * : >+*+~.w i.F.6.B.m.b.R )+m f `.R  .c..+` U 5 _ L / {.V 9 ] k { k $.) 0 , , ",
"% # % # > ; + > - # = ; ~.6 f.7 _+3  +J c.:.w.-+{+r l 1 z b R.c #.W / ^ j V {.[ k / ' $.~ 0 $.0 0 ) ",
"; > # . > @ , . % + = ^ i j 4 7 X i l *.u &.!+B.p.o.:.` )+( 0 , . ; k 8 ( : {.] ] { ' ' { { $.~ > > ",
"; ; . @ # . > + . . . W ;+i j | b | Q. +M m e $+!+p.-+m.w.G.~.V 0 ~ k k L V k ] / ' ! ! ~ ' $.$.! $.",
"# # + ; @ % # . $ + < ;+i e.( i X ++>+5 j 6 x w d./.q.b.<.E n ].^ ) , ) k ] k ' ] ] $.$.~ ' ) ' > ; ",
"> . > ; + + + $ $ ; j ;+g.7 8 j } 8 f.Q.~.f.#.h.>+b Q.n O e p #.{.) # > ' k { $.{.{.{ { , $.$.~ , ; ",
"> , @ @ # @ # + % %.j j j j h.W W 8 L h.l *+6 W :+7 3 t z 5 :+8 ' 0 @ , > { { ) ! { ! ) , ) , > ~ , ",
"@ ~ @ , . # . % ) j i j j e.8 _ W y [ 8 : W M h.8 W g.#.z ].M ;+[ 1 &.l d i {.k { { ) $., > ; > > , ",
", ; , # , ; @ + L 7 ;+g.g.} e._ L : : _ 9 [ _ V i } g.6 } i 7 _ h._+L.N t l 2 >+_ ! ' 0 0 ; > @ ; ; ",
"; , , @ @ . . ^ | g.7 e.h.h.} } [ ( _ : W _ 8 L %._ L i j e.L [ W #.U d f h f ~.L f.! , , 0 . @ 0 ; ",
"> > 0 > ; . , i ~.7 g.g.j e.h.} L ( ( [ : _ [ : : [ _ y h.b a f.f.g.[ } 4 d i.| { / V $.; ~ @ 0 , . ",
"> 0 > ; 0 ; : | f.| i f.7 e.g.e._ 8 ( L y ( 8 } y ( _ _ W M ].g.*+i | 1 `.L.r 4 [ 9 9 V ) ! , , , > ",
"0 > ; , ) 9 f.7 6 f.7 | i j i i h.( W h.[ _ } _ 8 [ : ( 8 W 8 } g.7 ;+6 ++G d.w y < {.: $.~ ; # > > ",
"0 , ~ ; k i f.X M ~.~.j f.g.j g.;+( e.j L _ W } W L L W e.h.h.~.h.i | ;+X i.L.l ~./ [ / ' ! $.> , @ ",
"~ ~ $.) 8 X M ].X ~.f.7 X j i g.i W } h.h.W _ _ L 8 _ h.e.e.e.X i 6 i ~.c I i.2 #.: *+;+%.9 0 0 ; , ",
"~ ! ) / ].6 M 6 M ].X 7 f.7 | g.;+g.j e.g.} } _ W _ _ i } g.e.h.a l | ;+*+g f l ;+8 ;+X _ 7 0 ! ; ~ ",
"! ! ' 7 *+a 1 a *+6 1 X M X | 7 ;+7 f.;+i h.g.g.e.g.h.7 ;+i X 7 ].6 a f.M v D _+L y _ 8 e.< ! {.) k "};
