<?xml version="1.0" encoding="UTF-8" standalone="no"?>
<!-- Created with Inkscape (http://www.inkscape.org/) -->

<svg
   xmlns:dc="http://purl.org/dc/elements/1.1/"
   xmlns:cc="http://creativecommons.org/ns#"
   xmlns:rdf="http://www.w3.org/1999/02/22-rdf-syntax-ns#"
   xmlns:svg="http://www.w3.org/2000/svg"
   xmlns="http://www.w3.org/2000/svg"
   xmlns:xlink="http://www.w3.org/1999/xlink"
   xmlns:sodipodi="http://sodipodi.sourceforge.net/DTD/sodipodi-0.dtd"
   xmlns:inkscape="http://www.inkscape.org/namespaces/inkscape"
   id="svg3039"
   version="1.1"
   inkscape:version="0.48.3.1 r9886"
   width="1280"
   height="800"
   sodipodi:docname="1280-800-magenta-bg.png.2013_03_19_15_40_08.0.svg"
   inkscape:export-filename="/home/serdar/Downloads/newbase1.png"
   inkscape:export-xdpi="90"
   inkscape:export-ydpi="90">
  <metadata
     id="metadata3045">
    <rdf:RDF>
      <cc:Work
         rdf:about="">
        <dc:format>image/svg+xml</dc:format>
        <dc:type
           rdf:resource="http://purl.org/dc/dcmitype/StillImage" />
        <dc:title></dc:title>
      </cc:Work>
    </rdf:RDF>
  </metadata>
  <defs
     id="defs3043">
    <linearGradient
       gradientTransform="translate(412.6201,-813.9922)"
       y2="830.86438"
       x2="-377.39111"
       y1="869.43951"
       x1="-377.39111"
       gradientUnits="userSpaceOnUse"
       id="linearGradient4003">
      <stop
         id="stop4005"
         style="stop-color:#e03584;stop-opacity:1;"
         offset="0" />
      <stop
         offset="1"
         style="stop-color:#cf2379;stop-opacity:0.0866426"
         id="stop4007" />
    </linearGradient>
    <linearGradient
       id="linearGradient3906">
      <stop
         style="stop-color:#ff3d95;stop-opacity:1;"
         offset="0"
         id="stop3908" />
      <stop
         style="stop-color:#db3081;stop-opacity:0;"
         offset="1"
         id="stop3910" />
    </linearGradient>
    <linearGradient
       id="linearGradient3957">
      <stop
         style="stop-color:#c82f74;stop-opacity:1;"
         offset="0"
         id="stop3959" />
      <stop
         style="stop-color:#c82f74;stop-opacity:0;"
         offset="1"
         id="stop3961" />
    </linearGradient>
    <linearGradient
       id="linearGradient3949">
      <stop
         style="stop-color:#ffffff;stop-opacity:1;"
         offset="0"
         id="stop3951" />
      <stop
         style="stop-color:#bb1026;stop-opacity:0;"
         offset="1"
         id="stop3953" />
    </linearGradient>
    <linearGradient
       id="linearGradient3825">
      <stop
         style="stop-color:#bc2568;stop-opacity:1;"
         offset="0"
         id="stop3827" />
      <stop
         style="stop-color:#ffffff;stop-opacity:0;"
         offset="1"
         id="stop3829" />
    </linearGradient>
    <linearGradient
       inkscape:collect="always"
       xlink:href="#linearGradient3825-6"
       id="linearGradient3831-1"
       x1="-362.54572"
       y1="-374.32724"
       x2="1440.5798"
       y2="-374.32724"
       gradientUnits="userSpaceOnUse"
       gradientTransform="matrix(1.000011,0,0,0.95713035,302.63575,135.27356)" />
    <linearGradient
       id="linearGradient3825-6">
      <stop
         style="stop-color:#bc2568;stop-opacity:1;"
         offset="0"
         id="stop3827-0" />
      <stop
         style="stop-color:#ffffff;stop-opacity:0;"
         offset="1"
         id="stop3829-8" />
    </linearGradient>
    <linearGradient
       y2="-374.32724"
       x2="1440.5798"
       y1="-374.32724"
       x1="-362.54572"
       gradientTransform="matrix(1.000011,0,0,0.95713035,-677.61594,1053.6281)"
       gradientUnits="userSpaceOnUse"
       id="linearGradient3848-1"
       xlink:href="#linearGradient3825-6-6"
       inkscape:collect="always" />
    <linearGradient
       id="linearGradient3825-6-6">
      <stop
         style="stop-color:#bc2568;stop-opacity:1;"
         offset="0"
         id="stop3827-0-5" />
      <stop
         style="stop-color:#ffffff;stop-opacity:0;"
         offset="1"
         id="stop3829-8-8" />
    </linearGradient>
    <linearGradient
       inkscape:collect="always"
       xlink:href="#linearGradient3825-1"
       id="linearGradient3831-5"
       x1="-362.54572"
       y1="-374.32724"
       x2="1440.5798"
       y2="-374.32724"
       gradientUnits="userSpaceOnUse"
       gradientTransform="matrix(1.000011,0,0,0.95713035,302.63575,135.27356)" />
    <linearGradient
       id="linearGradient3825-1">
      <stop
         style="stop-color:#bc2568;stop-opacity:1;"
         offset="0"
         id="stop3827-3" />
      <stop
         style="stop-color:#ffffff;stop-opacity:0;"
         offset="1"
         id="stop3829-9" />
    </linearGradient>
    <linearGradient
       id="SVGID_1_"
       gradientUnits="userSpaceOnUse"
       x1="-377.39111"
       y1="869.43951"
       x2="-377.39111"
       y2="830.86438"
       gradientTransform="translate(412.6201,-813.9922)">
      <stop
         offset="0"
         style="stop-color:#e03584;stop-opacity:1;"
         id="stop4325" />
      <stop
         id="stop3904"
         style="stop-color:#cf2379;stop-opacity:1;"
         offset="1" />
    </linearGradient>
    <linearGradient
       id="SVGID_2_"
       gradientUnits="userSpaceOnUse"
       x1="-319.54739"
       y1="869.43951"
       x2="-319.54739"
       y2="830.86438"
       gradientTransform="translate(412.6201,-813.9922)">
      <stop
         offset="0"
         style="stop-color:#EC008C"
         id="stop4332" />
      <stop
         offset="1"
         style="stop-color:#C40075"
         id="stop4334" />
    </linearGradient>
    <radialGradient
       id="SVGID_3_"
       cx="-348.61911"
       cy="877.89752"
       r="50.205601"
       gradientTransform="translate(412.6201,-813.9922)"
       gradientUnits="userSpaceOnUse">
      <stop
         offset="0"
         style="stop-color:#FAFAFA"
         id="stop4339" />
      <stop
         offset="0.3109"
         style="stop-color:#F4F4F4"
         id="stop4341" />
      <stop
         offset="0.7262"
         style="stop-color:#E3E3E3"
         id="stop4343" />
      <stop
         offset="1"
         style="stop-color:#D4D4D4"
         id="stop4345" />
    </radialGradient>
    <linearGradient
       id="SVGID_4_"
       gradientUnits="userSpaceOnUse"
       x1="16.9111"
       y1="103.7656"
       x2="46.650902"
       y2="103.7656">
      <stop
         offset="0"
         style="stop-color:#EC008C"
         id="stop4358" />
      <stop
         offset="1"
         style="stop-color:#C4008C"
         id="stop4360" />
    </linearGradient>
    <linearGradient
       id="SVGID_5_"
       gradientUnits="userSpaceOnUse"
       x1="23.283199"
       y1="104.6143"
       x2="53.023399"
       y2="104.6143">
      <stop
         offset="0"
         style="stop-color:#EC008C"
         id="stop4369" />
      <stop
         offset="1"
         style="stop-color:#C4008C"
         id="stop4371" />
    </linearGradient>
    <linearGradient
       id="SVGID_6_"
       gradientUnits="userSpaceOnUse"
       x1="81.346703"
       y1="103.7656"
       x2="111.0859"
       y2="103.7656">
      <stop
         offset="0"
         style="stop-color:#EC008C"
         id="stop4382" />
      <stop
         offset="1"
         style="stop-color:#C4008C"
         id="stop4384" />
    </linearGradient>
    <linearGradient
       id="SVGID_7_"
       gradientUnits="userSpaceOnUse"
       x1="74.973602"
       y1="104.6133"
       x2="104.7119"
       y2="104.6133">
      <stop
         offset="0"
         style="stop-color:#EC008C"
         id="stop4393" />
      <stop
         offset="1"
         style="stop-color:#C4008C"
         id="stop4395" />
    </linearGradient>
    <linearGradient
       id="SVGID_8_"
       gradientUnits="userSpaceOnUse"
       x1="-368.58981"
       y1="846.97272"
       x2="-354.23831"
       y2="846.97272"
       gradientTransform="translate(412.6201,-813.9922)">
      <stop
         offset="0"
         style="stop-color:#9A9A9A"
         id="stop4406" />
      <stop
         offset="1"
         style="stop-color:#DEDEDE"
         id="stop4408" />
    </linearGradient>
    <linearGradient
       id="SVGID_9_"
       gradientUnits="userSpaceOnUse"
       x1="-356.67191"
       y1="844.71582"
       x2="-347.21481"
       y2="844.71582"
       gradientTransform="translate(412.6201,-813.9922)">
      <stop
         offset="0"
         style="stop-color:#9A9A9A"
         id="stop4413" />
      <stop
         offset="1"
         style="stop-color:#DEDEDE"
         id="stop4415" />
    </linearGradient>
    <linearGradient
       id="SVGID_10_"
       gradientUnits="userSpaceOnUse"
       x1="-372.896"
       y1="885.76172"
       x2="-362.9971"
       y2="885.76172"
       gradientTransform="translate(412.6201,-813.9922)">
      <stop
         offset="0"
         style="stop-color:#5F5D5C"
         id="stop4420" />
      <stop
         offset="1"
         style="stop-color:#181500"
         id="stop4422" />
    </linearGradient>
    <linearGradient
       id="SVGID_11_"
       gradientUnits="userSpaceOnUse"
       x1="-334.31149"
       y1="885.76172"
       x2="-324.40921"
       y2="885.76172"
       gradientTransform="translate(412.6201,-813.9922)">
      <stop
         offset="0"
         style="stop-color:#5F5D5C"
         id="stop4427" />
      <stop
         offset="1"
         style="stop-color:#181500"
         id="stop4429" />
    </linearGradient>
    <linearGradient
       inkscape:collect="always"
       xlink:href="#SVGID_1_"
       id="linearGradient4168"
       gradientUnits="userSpaceOnUse"
       gradientTransform="translate(412.6201,-813.9922)"
       x1="-377.39111"
       y1="869.43951"
       x2="-377.39111"
       y2="830.86438" />
    <linearGradient
       inkscape:collect="always"
       xlink:href="#SVGID_2_"
       id="linearGradient4170"
       gradientUnits="userSpaceOnUse"
       gradientTransform="translate(412.6201,-813.9922)"
       x1="-319.54739"
       y1="869.43951"
       x2="-319.54739"
       y2="830.86438" />
    <radialGradient
       inkscape:collect="always"
       xlink:href="#SVGID_3_"
       id="radialGradient4172"
       gradientUnits="userSpaceOnUse"
       gradientTransform="translate(412.6201,-813.9922)"
       cx="-348.61911"
       cy="877.89752"
       r="50.205601" />
    <linearGradient
       inkscape:collect="always"
       xlink:href="#SVGID_4_"
       id="linearGradient4174"
       gradientUnits="userSpaceOnUse"
       x1="16.9111"
       y1="103.7656"
       x2="46.650902"
       y2="103.7656" />
    <linearGradient
       inkscape:collect="always"
       xlink:href="#SVGID_5_"
       id="linearGradient4176"
       gradientUnits="userSpaceOnUse"
       x1="23.283199"
       y1="104.6143"
       x2="53.023399"
       y2="104.6143" />
    <linearGradient
       inkscape:collect="always"
       xlink:href="#SVGID_6_"
       id="linearGradient4178"
       gradientUnits="userSpaceOnUse"
       x1="81.346703"
       y1="103.7656"
       x2="111.0859"
       y2="103.7656" />
    <linearGradient
       inkscape:collect="always"
       xlink:href="#SVGID_7_"
       id="linearGradient4180"
       gradientUnits="userSpaceOnUse"
       x1="74.973602"
       y1="104.6133"
       x2="104.7119"
       y2="104.6133" />
    <linearGradient
       inkscape:collect="always"
       xlink:href="#SVGID_8_"
       id="linearGradient4182"
       gradientUnits="userSpaceOnUse"
       gradientTransform="translate(412.6201,-813.9922)"
       x1="-368.58981"
       y1="846.97272"
       x2="-354.23831"
       y2="846.97272" />
    <linearGradient
       inkscape:collect="always"
       xlink:href="#SVGID_9_"
       id="linearGradient4184"
       gradientUnits="userSpaceOnUse"
       gradientTransform="translate(412.6201,-813.9922)"
       x1="-356.67191"
       y1="844.71582"
       x2="-347.21481"
       y2="844.71582" />
    <linearGradient
       inkscape:collect="always"
       xlink:href="#SVGID_10_"
       id="linearGradient4186"
       gradientUnits="userSpaceOnUse"
       gradientTransform="translate(412.6201,-813.9922)"
       x1="-372.896"
       y1="885.76172"
       x2="-362.9971"
       y2="885.76172" />
    <linearGradient
       inkscape:collect="always"
       xlink:href="#SVGID_11_"
       id="linearGradient4188"
       gradientUnits="userSpaceOnUse"
       gradientTransform="translate(412.6201,-813.9922)"
       x1="-334.31149"
       y1="885.76172"
       x2="-324.40921"
       y2="885.76172" />
    <linearGradient
       inkscape:collect="always"
       xlink:href="#linearGradient4003"
       id="linearGradient4005"
       x1="66.773392"
       y1="85.002136"
       x2="1171.2695"
       y2="783.00214"
       gradientUnits="userSpaceOnUse" />
    <linearGradient
       inkscape:collect="always"
       xlink:href="#linearGradient3906"
       id="linearGradient3912"
       x1="-1109.5172"
       y1="820.80316"
       x2="1404.129"
       y2="252.80316"
       gradientUnits="userSpaceOnUse" />
    <filter
       inkscape:collect="always"
       id="filter3991">
      <feGaussianBlur
         inkscape:collect="always"
         stdDeviation="0.52393791"
         id="feGaussianBlur3993" />
    </filter>
    <linearGradient
       inkscape:collect="always"
       xlink:href="#linearGradient4003-9"
       id="linearGradient4005-6"
       x1="66.773392"
       y1="85.002136"
       x2="1171.2695"
       y2="783.00214"
       gradientUnits="userSpaceOnUse" />
    <linearGradient
       gradientTransform="translate(412.6201,-813.9922)"
       y2="830.86438"
       x2="-377.39111"
       y1="869.43951"
       x1="-377.39111"
       gradientUnits="userSpaceOnUse"
       id="linearGradient4003-9">
      <stop
         id="stop4005-2"
         style="stop-color:#e03584;stop-opacity:1;"
         offset="0" />
      <stop
         offset="1"
         style="stop-color:#cf2379;stop-opacity:0.0866426"
         id="stop4007-3" />
    </linearGradient>
    <linearGradient
       gradientTransform="translate(-0.02144009,426.99786)"
       y2="55.002136"
       x2="927.26953"
       y1="-392.99786"
       x1="40.773392"
       gradientUnits="userSpaceOnUse"
       id="linearGradient4024"
       xlink:href="#linearGradient4003-9"
       inkscape:collect="always" />
    <linearGradient
       gradientTransform="translate(1.97856,414.99786)"
       y2="383.00214"
       x2="473.26953"
       y1="-410.99786"
       x1="2.7733917"
       gradientUnits="userSpaceOnUse"
       id="linearGradient4024-5"
       xlink:href="#linearGradient4003-9-9"
       inkscape:collect="always" />
    <linearGradient
       gradientTransform="translate(412.6201,-813.9922)"
       y2="830.86438"
       x2="-377.39111"
       y1="869.43951"
       x1="-377.39111"
       gradientUnits="userSpaceOnUse"
       id="linearGradient4003-9-9">
      <stop
         id="stop4005-2-8"
         style="stop-color:#e03584;stop-opacity:1;"
         offset="0" />
      <stop
         offset="1"
         style="stop-color:#cf2379;stop-opacity:0.0866426"
         id="stop4007-3-7" />
    </linearGradient>
    <linearGradient
       y2="383.00214"
       x2="473.26953"
       y1="-410.99786"
       x1="2.7733917"
       gradientTransform="matrix(-1,0,0,1,1280.0215,413.55376)"
       gradientUnits="userSpaceOnUse"
       id="linearGradient4058"
       xlink:href="#linearGradient4003-9-9"
       inkscape:collect="always" />
    <linearGradient
       inkscape:collect="always"
       xlink:href="#linearGradient3906-0"
       id="linearGradient3912-1"
       x1="-1109.5172"
       y1="820.80316"
       x2="1404.129"
       y2="252.80316"
       gradientUnits="userSpaceOnUse" />
    <linearGradient
       id="linearGradient3906-0">
      <stop
         style="stop-color:#ff3d95;stop-opacity:1;"
         offset="0"
         id="stop3908-6" />
      <stop
         style="stop-color:#db3081;stop-opacity:0;"
         offset="1"
         id="stop3910-9" />
    </linearGradient>
    <filter
       color-interpolation-filters="sRGB"
       inkscape:collect="always"
       id="filter3991-0">
      <feGaussianBlur
         inkscape:collect="always"
         stdDeviation="0.52393791"
         id="feGaussianBlur3993-9" />
    </filter>
    <linearGradient
       gradientTransform="translate(-58.305895,93.196826)"
       y2="252.80316"
       x2="1404.129"
       y1="820.80316"
       x1="-1109.5172"
       gradientUnits="userSpaceOnUse"
       id="linearGradient4111"
       xlink:href="#linearGradient3906-0"
       inkscape:collect="always" />
    <linearGradient
       inkscape:collect="always"
       xlink:href="#linearGradient3906-0"
       id="linearGradient4134"
       gradientUnits="userSpaceOnUse"
       gradientTransform="translate(-320.3059,71.19683)"
       x1="-1109.5172"
       y1="820.80316"
       x2="1404.129"
       y2="252.80316" />
  </defs>
  <sodipodi:namedview
     pagecolor="#ffffff"
     bordercolor="#666666"
     borderopacity="1"
     objecttolerance="10"
     gridtolerance="10"
     guidetolerance="10"
     inkscape:pageopacity="0"
     inkscape:pageshadow="2"
     inkscape:window-width="1366"
     inkscape:window-height="718"
     id="namedview3041"
     showgrid="false"
     inkscape:zoom="0.70710678"
     inkscape:cx="595.64529"
     inkscape:cy="332.29774"
     inkscape:window-x="-2"
     inkscape:window-y="-3"
     inkscape:window-maximized="1"
     inkscape:current-layer="svg3039"
     showguides="true"
     inkscape:snap-global="false"
     inkscape:guide-bbox="true">
    <sodipodi:guide
       position="0,0"
       orientation="0,1280"
       id="guide3959" />
    <sodipodi:guide
       position="1280,0"
       orientation="-800,0"
       id="guide3961" />
    <sodipodi:guide
       position="1280,800"
       orientation="0,-1280"
       id="guide3963" />
    <inkscape:grid
       type="xygrid"
       id="grid3967" />
  </sodipodi:namedview>
  <path
     style="fill:#bb2568;fill-opacity:1"
     d="M 0,800 1280,800 1280,0 0,0 0,800 z"
     id="rect3049"
     inkscape:connector-curvature="0" />
  <path
     style="fill:#bb2568;fill-opacity:1;opacity:1"
     id="path3823" />
  <path
     style="fill:url(#linearGradient4005);fill-opacity:1;stroke:none;stroke-width:0.61102133999999997px;stroke-linecap:butt;stroke-linejoin:miter;stroke-opacity:1;opacity:0.44043321"
     d="m 365.38618,2.3591944 c 0,0 -8.00371,286.7933556 510.81382,273.7375256 371.5685,-9.3504 413.0504,-278.625712 413.0504,-278.625712 C 1293.3858,384.93028 625.18921,444.20345 350.72167,376.30419 101.90572,314.75078 -1.2266117,229.65913 -1.2266117,229.65913 l 0,-229.7440753 z"
     id="path3145"
     inkscape:connector-curvature="0"
     sodipodi:nodetypes="cscsccc" />
  <path
     style="opacity:0.6028881;fill:url(#linearGradient3912);fill-opacity:1;stroke:none;filter:url(#filter3991)"
     d="M 1246.6907,-0.937763 C 1234.1046,126.99691 1106.9172,300.16033 1027.1776,349.54998 860.8558,452.56749 667.198,481.68942 477.9594,490.71334 375.64693,486.48097 276.99123,460.95539 196.73083,432.62947 c 0,0 -5.47117,223.23742 -4.56507,220.4849 268.92947,160.98549 766.77005,212.48904 1091.53474,100.40316 0,0 -1.1981,-282.59814 0.1234,-418.9255 l -0.6492,-336.14669 c 0,0 -37.6163,0.946172 -36.484,0.616897 z"
     id="path3145-3"
     inkscape:connector-curvature="0"
     sodipodi:nodetypes="csccccccc"
     transform="matrix(1.1758001,0,0,1,-225.91746,0)" />
  <path
     style="opacity:0.35379064;fill:url(#linearGradient4024);fill-opacity:1;stroke:none"
     d="m 361.36474,11.35706 c 0,0 -4.00371,704.79335 514.81382,691.73752 C 1247.7471,693.74418 1289.229,424.46887 1289.229,424.46887 1307.3647,808.27456 1014.3954,786.19644 411.51141,801.88783 155.28159,808.55678 -1.2480501,656.65699 -1.2480501,656.65699 l 4,-655.74408001 z"
     id="path3145-9"
     inkscape:connector-curvature="0"
     sodipodi:nodetypes="cscsccc" />
  <path
     style="opacity:0.51624546;fill:url(#linearGradient4058);fill-opacity:1;stroke:none"
     d="m 918.6353,-2.08704 c 0,0 4.0037,704.79335 -514.8138,691.73752 C 32.25291,680.30008 -9.22899,411.02477 -9.22899,411.02477 c -4.1353,387.45927 664.06128,446.73243 938.52879,378.83318 248.816,-61.55341 351.9483,-146.64506 351.9483,-146.64506 l -2,-643.74408002 z"
     id="path3145-9-1"
     inkscape:connector-curvature="0"
     sodipodi:nodetypes="cscsccc" />
  <path
     style="opacity:0.55956678;fill:url(#linearGradient4134);fill-opacity:1;stroke:none;filter:url(#filter3991-0)"
     d="M 926.3848,70.25906 C 913.7987,198.19373 786.6113,371.35715 706.8717,420.7468 540.5499,523.76431 346.8921,552.88624 157.6535,561.91016 103.57216,559.67297 50.347293,550.70906 0.2285032,538.09229 c -0.57955307,-0.0111 -0.78340725,60.48436 -0.89787598,120.60205 1.19688247,-1.55871 963.62046278,1.13763 963.62046278,1.13763 -0.12276,-86.31055 -0.0775,-187.56671 0.56693,-254.04312 L 962.8688,69.64217 c 0,0 -37.6163,0.94617 -36.484,0.61689 z"
     id="path3145-3-6"
     inkscape:connector-curvature="0"
     sodipodi:nodetypes="csccccccc"
     transform="matrix(1,0,0,1.2417742,0,-16.533659)" />
  <g
     id="g3331"
     transform="translate(-492.50198,203.15556)">
    <g
       id="g4322"
       transform="matrix(0.81134558,0,0,0.81134558,1070.8215,103.19235)">
      <linearGradient
         gradientTransform="translate(412.6201,-813.9922)"
         y2="830.86438"
         x2="-377.39111"
         y1="869.43951"
         x1="-377.39111"
         gradientUnits="userSpaceOnUse"
         id="linearGradient4345">
        <stop
           id="stop4347"
           style="stop-color:#EC008C"
           offset="0" />
        <stop
           id="stop4349"
           style="stop-color:#C40075"
           offset="1" />
      </linearGradient>
      <path
         id="path4329"
         d="m 54.809,45.109 c 0,0 -3.008,-28.387 -37.776,-33.583 0,0 -12.369,48.379 17.048,52.777 29.418,4.395 20.728,-19.194 20.728,-19.194 z"
         inkscape:connector-curvature="0"
         style="fill:url(#linearGradient4168)" />
      <linearGradient
         gradientTransform="translate(412.6201,-813.9922)"
         y2="830.86438"
         x2="-319.54739"
         y1="869.43951"
         x1="-319.54739"
         gradientUnits="userSpaceOnUse"
         id="linearGradient4352">
        <stop
           id="stop4354"
           style="stop-color:#EC008C"
           offset="0" />
        <stop
           id="stop4356"
           style="stop-color:#C40075"
           offset="1" />
      </linearGradient>
      <path
         id="path4336"
         d="m 73.495,45.109 c 0,0 3.008,-28.387 37.773,-33.583 0,0 12.369,48.379 -17.049,52.777 C 64.802,68.698 73.495,45.109 73.495,45.109 z"
         inkscape:connector-curvature="0"
         style="fill:url(#linearGradient4170)" />
      <radialGradient
         gradientUnits="userSpaceOnUse"
         gradientTransform="translate(412.6201,-813.9922)"
         r="50.205601"
         cy="877.89752"
         cx="-348.61911"
         id="radialGradient4359">
        <stop
           id="stop4361"
           style="stop-color:#FAFAFA"
           offset="0" />
        <stop
           id="stop4363"
           style="stop-color:#F4F4F4"
           offset="0.3109" />
        <stop
           id="stop4365"
           style="stop-color:#E3E3E3"
           offset="0.7262" />
        <stop
           id="stop4367"
           style="stop-color:#D4D4D4"
           offset="1" />
      </radialGradient>
      <path
         id="path4347"
         d="m 63.997,111.483 c 24.684,0 45.582,-16.227 52.707,-38.625 -7.125,-22.405 -28.023,-56.53 -52.707,-56.53 -24.677,0 -45.579,34.125 -52.7,56.53 7.121,22.399 28.023,38.625 52.7,38.625 z"
         inkscape:connector-curvature="0"
         style="fill:url(#radialGradient4172);stroke:#b3b3b3" />
      <g
         id="g4349">
        <g
           id="g4351">
          <g
             id="g4353">
            <line
               id="line4355"
               y2="114.775"
               x2="17.620001"
               y1="92.757004"
               x1="45.942001"
               style="fill:none" />
            <linearGradient
               y2="103.7656"
               x2="46.650902"
               y1="103.7656"
               x1="16.9111"
               gradientUnits="userSpaceOnUse"
               id="linearGradient4374">
              <stop
                 id="stop4376"
                 style="stop-color:#EC008C"
                 offset="0" />
              <stop
                 id="stop4378"
                 style="stop-color:#C4008C"
                 offset="1" />
            </linearGradient>
            <path
               id="path4362"
               d="m 45.558,92.045 -28.323,22.019 c -0.328,0.258 -0.423,0.778 -0.208,1.176 0.213,0.392 0.65,0.502 0.978,0.246 L 46.327,93.47 c 0.329,-0.256 0.423,-0.783 0.209,-1.178 -0.212,-0.391 -0.651,-0.502 -0.978,-0.247 z"
               inkscape:connector-curvature="0"
               style="fill:url(#linearGradient4174)" />
          </g>
          <g
             id="g4364">
            <line
               id="line4366"
               y2="115.626"
               x2="23.992001"
               y1="93.602997"
               x1="52.318001"
               style="fill:none" />
            <linearGradient
               y2="104.6143"
               x2="53.023399"
               y1="104.6143"
               x1="23.283199"
               gradientUnits="userSpaceOnUse"
               id="linearGradient4383">
              <stop
                 id="stop4385"
                 style="stop-color:#EC008C"
                 offset="0" />
              <stop
                 id="stop4387"
                 style="stop-color:#C4008C"
                 offset="1" />
            </linearGradient>
            <path
               id="path4373"
               d="m 51.93,92.896 -28.325,22.016 c -0.329,0.253 -0.42,0.779 -0.206,1.174 0.211,0.395 0.651,0.506 0.978,0.253 L 52.701,94.313 c 0.328,-0.255 0.422,-0.779 0.208,-1.176 -0.215,-0.39 -0.65,-0.501 -0.979,-0.241 z"
               inkscape:connector-curvature="0"
               style="fill:url(#linearGradient4176)" />
          </g>
        </g>
        <g
           id="g4375">
          <g
             id="g4377">
            <line
               id="line4379"
               y2="114.775"
               x2="110.378"
               y1="92.757004"
               x1="82.056"
               style="fill:none" />
            <linearGradient
               y2="103.7656"
               x2="111.0859"
               y1="103.7656"
               x1="81.346703"
               gradientUnits="userSpaceOnUse"
               id="linearGradient4393">
              <stop
                 id="stop4396"
                 style="stop-color:#EC008C"
                 offset="0" />
              <stop
                 id="stop4398"
                 style="stop-color:#C4008C"
                 offset="1" />
            </linearGradient>
            <path
               id="path4386"
               d="m 82.44,92.045 28.324,22.019 c 0.327,0.258 0.42,0.778 0.207,1.176 -0.211,0.392 -0.65,0.502 -0.979,0.246 L 81.671,93.47 c -0.328,-0.256 -0.424,-0.783 -0.209,-1.178 0.215,-0.391 0.654,-0.502 0.978,-0.247 z"
               inkscape:connector-curvature="0"
               style="fill:url(#linearGradient4178)" />
          </g>
          <g
             id="g4388">
            <line
               id="line4390"
               y2="115.626"
               x2="104.005"
               y1="93.602997"
               x1="75.682999"
               style="fill:none" />
            <linearGradient
               y2="104.6133"
               x2="104.7119"
               y1="104.6133"
               x1="74.973602"
               gradientUnits="userSpaceOnUse"
               id="linearGradient4403">
              <stop
                 id="stop4405"
                 style="stop-color:#EC008C"
                 offset="0" />
              <stop
                 id="stop4407"
                 style="stop-color:#C4008C"
                 offset="1" />
            </linearGradient>
            <path
               id="path4397"
               d="m 76.067,92.896 28.323,22.016 c 0.325,0.253 0.42,0.779 0.208,1.174 -0.217,0.392 -0.652,0.506 -0.979,0.253 L 75.298,94.312 c -0.328,-0.255 -0.424,-0.779 -0.209,-1.176 0.215,-0.389 0.654,-0.5 0.978,-0.24 z"
               inkscape:connector-curvature="0"
               style="fill:url(#linearGradient4180)" />
          </g>
        </g>
      </g>
      <path
         id="path4399"
         d="m 34.45,65.979 c 0,0 19.605,-5.223 15.249,15.683 -10e-4,0 -18.296,3.923 -15.249,-15.683 z"
         inkscape:connector-curvature="0"
         style="fill:#ffffff" />
      <path
         id="path4401"
         d="m 93.548,65.979 c 0,0 -19.604,-5.223 -15.245,15.683 0,0 18.292,3.923 15.245,-15.683 z"
         inkscape:connector-curvature="0"
         style="fill:#ffffff" />
      <line
         id="line4403"
         y2="103.229"
         x2="64"
         y1="95.064003"
         x1="64"
         style="fill:#595959;stroke:#4d4d4d" />
      <linearGradient
         gradientTransform="translate(412.6201,-813.9922)"
         y2="846.97272"
         x2="-354.23831"
         y1="846.97272"
         x1="-368.58981"
         gradientUnits="userSpaceOnUse"
         id="linearGradient4413">
        <stop
           id="stop4416"
           style="stop-color:#9A9A9A"
           offset="0" />
        <stop
           id="stop4418"
           style="stop-color:#DEDEDE"
           offset="1" />
      </linearGradient>
      <path
         id="path4410"
         d="m 48.336,21.335 c -1.612,0.896 -4.306,2.883 -4.306,2.883 L 58.382,47.021 53.187,18.942 c 0,0 -3.121,1.432 -4.851,2.393 z"
         inkscape:connector-curvature="0"
         style="fill:url(#linearGradient4182)" />
      <linearGradient
         gradientTransform="translate(412.6201,-813.9922)"
         y2="844.71582"
         x2="-347.21481"
         y1="844.71582"
         x1="-356.67191"
         gradientUnits="userSpaceOnUse"
         id="linearGradient4421">
        <stop
           id="stop4423"
           style="stop-color:#9A9A9A"
           offset="0" />
        <stop
           id="stop4425"
           style="stop-color:#DEDEDE"
           offset="1" />
      </linearGradient>
      <path
         id="path4417"
         d="m 61.369,16.875 c -2.844,0.308 -5.42,1.153 -5.42,1.153 l 7.146,26.691 2.311,-27.884 c -0.001,10e-4 -1.193,-0.267 -4.037,0.04 z"
         inkscape:connector-curvature="0"
         style="fill:url(#linearGradient4184)" />
      <linearGradient
         gradientTransform="translate(412.6201,-813.9922)"
         y2="885.76172"
         x2="-362.9971"
         y1="885.76172"
         x1="-372.896"
         gradientUnits="userSpaceOnUse"
         id="linearGradient4428">
        <stop
           id="stop4430"
           style="stop-color:#5F5D5C"
           offset="0" />
        <stop
           id="stop4432"
           style="stop-color:#181500"
           offset="1" />
      </linearGradient>
      <circle
         id="circle4424"
         r="4.9510002"
         cy="71.771004"
         cx="44.673"
         sodipodi:cx="44.673"
         sodipodi:cy="71.771004"
         sodipodi:rx="4.9510002"
         sodipodi:ry="4.9510002"
         style="fill:url(#linearGradient4186)"
         d="m 49.624001,71.771004 c 0,2.734362 -2.216639,4.951 -4.951001,4.951 -2.734362,0 -4.951,-2.216638 -4.951,-4.951 0,-2.734362 2.216638,-4.951 4.951,-4.951 2.734362,0 4.951001,2.216638 4.951001,4.951 z" />
      <linearGradient
         gradientTransform="translate(412.6201,-813.9922)"
         y2="885.76172"
         x2="-324.40921"
         y1="885.76172"
         x1="-334.31149"
         gradientUnits="userSpaceOnUse"
         id="linearGradient4435">
        <stop
           id="stop4437"
           style="stop-color:#5F5D5C"
           offset="0" />
        <stop
           id="stop4439"
           style="stop-color:#181500"
           offset="1" />
      </linearGradient>
      <circle
         id="circle4431"
         r="4.9510002"
         cy="71.771004"
         cx="83.259003"
         sodipodi:cx="83.259003"
         sodipodi:cy="71.771004"
         sodipodi:rx="4.9510002"
         sodipodi:ry="4.9510002"
         style="fill:url(#linearGradient4188)"
         d="m 88.210003,71.771004 c 0,2.734362 -2.216638,4.951 -4.951,4.951 -2.734362,0 -4.951001,-2.216638 -4.951001,-4.951 0,-2.734362 2.216639,-4.951 4.951001,-4.951 2.734362,0 4.951,2.216638 4.951,4.951 z" />
      <path
         id="path4433"
         d="m 34.086,64.614 -0.893,0.236 -0.142,0.908 c -1.007,6.472 0.104,11.278 3.295,14.296 5.047,4.766 13.298,3.065 13.646,2.992 l 0.906,-0.192 0.183,-0.905 C 52.514,75.087 51.615,70.068 48.417,67.037 43.322,62.222 34.463,64.515 34.086,64.614 z m 12.39,4.489 c 1.623,1.543 2.44,3.894 2.44,7.032 0,1.284 -0.171,2.737 -0.449,4.286 -2.067,0.256 -7.086,0.505 -10.183,-2.434 -1.836,-1.739 -2.761,-4.384 -2.761,-7.888 0,-0.903 0.123,-1.922 0.249,-2.945 2.14,-0.391 7.567,-1.026 10.704,1.949 z"
         inkscape:connector-curvature="0"
         style="fill:#595959" />
      <path
         id="path4435"
         d="m 79.581,67.037 c -3.201,3.031 -4.098,8.048 -2.664,14.915 l 0.186,0.902 0.902,0.192 c 0.348,0.075 8.6,1.777 13.646,-2.991 3.194,-3.016 4.303,-7.825 3.295,-14.293 l -0.142,-0.91 -0.894,-0.238 c -0.371,-0.099 -9.235,-2.392 -14.329,2.423 z m -0.498,9.094 c 0,-3.131 0.816,-5.487 2.439,-7.03 3.137,-2.977 8.566,-2.34 10.706,-1.948 0.123,1.021 0.245,2.044 0.245,2.945 0,3.504 -0.924,6.15 -2.758,7.888 -3.1,2.935 -8.115,2.689 -10.186,2.434 -0.272,-1.548 -0.446,-3.003 -0.446,-4.289 z"
         inkscape:connector-curvature="0"
         style="fill:#595959" />
      <g
         id="g4437">
        <path
           id="path4439"
           d="m 61.447,97.878 c 1.404,1.677 3.7,1.677 5.101,0 L 72.9,90.282 c 0.246,-0.298 0.438,-0.579 0.568,-0.852 -2.842,-0.854 -6.055,-1.338 -9.464,-1.338 -3.409,0 -6.628,0.484 -9.466,1.338 0.133,0.272 0.315,0.558 0.565,0.852 l 6.344,7.596 z"
           inkscape:connector-curvature="0"
           style="fill:#595959" />
      </g>
    </g>
    <text
       sodipodi:linespacing="125%"
       id="text4651"
       y="229.42859"
       x="1070.8727"
       style="font-size:22.40074921px;font-style:normal;font-variant:normal;font-weight:normal;font-stretch:normal;line-height:125%;letter-spacing:0px;word-spacing:0px;fill:#f4d7d7;fill-opacity:1;stroke:none;font-family:Sans;-inkscape-font-specification:Fixed"
       xml:space="preserve"><tspan
         y="229.42859"
         x="1070.8727"
         id="tspan4653"
         sodipodi:role="line">Pisi Linux</tspan></text>
  </g>
</svg>
